<svg width="1600" height="1000" viewBox="0 0 1600 1000" fill="none" xmlns="http://www.w3.org/2000/svg">
  <defs>
    <linearGradient id="sky" x1="800" y1="0" x2="800" y2="1000" gradientUnits="userSpaceOnUse">
      <stop stop-color="#132A4B"/>
      <stop offset="1" stop-color="#24385C"/>
    </linearGradient>
  </defs>
  <rect width="1600" height="1000" fill="url(#sky)"/>
  <path d="M284 218C300 188 338 176 368 194C346 202 332 222 332 246C332 264 340 280 354 292C320 294 292 288 276 262C268 246 270 236 284 218Z" fill="#FFF7CC"/>
  <circle cx="190" cy="202" r="4" fill="white" opacity="0.8"/>
  <circle cx="236" cy="164" r="3" fill="white" opacity="0.72"/>
  <circle cx="324" cy="170" r="4" fill="white" opacity="0.86"/>
  <circle cx="392" cy="214" r="3" fill="white" opacity="0.7"/>
  <circle cx="146" cy="258" r="3" fill="white" opacity="0.74"/>
  <path d="M66 512L112 474L160 486L220 444L260 470L320 424L386 456L438 436V650H66V512Z" fill="#121D33"/>
  <rect x="206" y="526" width="18" height="22" rx="4" fill="#F6C36A" opacity="0.88"/>
  <rect x="232" y="526" width="16" height="20" rx="4" fill="#F6C36A" opacity="0.72"/>
  <rect x="334" y="540" width="18" height="20" rx="4" fill="#F6C36A" opacity="0.76"/>
</svg>
